# xmcd
#
# Track frame offsets: 
#        150
#        44882
#        67419
#        94879
#        130249
#        212207
#        253484
#        286959
#        315721
#
# Disc length: 4537 seconds
#
# Revision: 0
# Processed by: cddbd v1.5.2PL0 Copyright (c) Steve Scherf et al.
# Submitted via: ExactAudioCopy v1.2
#
DISCID=9d11b709
DTITLE=Pacha Mamma - Live 2013
DYEAR=2013
DGENRE=Blues
TTITLE0=Don't Bring Yourself Down
TTITLE1=Glad You Called
TTITLE2=Waiting For You
TTITLE3=Wake Up
TTITLE4=Lay Down Your Guns, People Power
TTITLE5=Find My Way
TTITLE6=Black and Gold
TTITLE7=Better Be Good
TTITLE8=Lonely
EXTD=
EXTT0=
EXTT1=
EXTT2=
EXTT3=
EXTT4=
EXTT5=
EXTT6=
EXTT7=
EXTT8=
PLAYORDER=
